<svg xmlns="http://www.w3.org/2000/svg" width="24" height="24" viewBox="0 0 48 48"><g><circle fill="#fff" cx="24" cy="24" r="24"/><path fill="#4285F4" d="M34.5 24.5c0-.7-.1-1.4-.2-2H24v4.1h6c-.3 1.5-1.3 2.7-2.7 3.5v2.9h4.4c2.6-2.4 4.1-5.9 4.1-10.5z"/><path fill="#34A853" d="M24 36c3.3 0 6-1.1 8-3l-4.4-2.9c-1.2.8-2.7 1.3-4.6 1.3-3.5 0-6.4-2.4-7.4-5.6h-4.5v3.1C13.9 33.7 18.6 36 24 36z"/><path fill="#FBBC05" d="M16.6 25.8c-.3-.8-.5-1.7-.5-2.8s.2-2 .5-2.8v-3.1h-4.5C11.4 19.3 11 21.6 11 24s.4 4.7 1.1 6.9l4.5-3.1z"/><path fill="#EA4335" d="M24 17.9c1.8 0 3.4.6 4.6 1.7l3.4-3.4C30 14.1 27.3 13 24 13c-5.4 0-10.1 2.3-12.9 6.1l4.5 3.1c1-3.2 3.9-5.6 7.4-5.6z"/></g></svg>
